<svg width="24" height="24" viewBox="0 0 24 24" fill="none" xmlns="http://www.w3.org/2000/svg">
<path d="M12.0001 1.16304C17.9847 1.16325 22.8361 6.01524 22.8361 12C22.8359 17.9845 17.9846 22.8357 12.0001 22.8359C6.01545 22.8358 1.16342 17.9845 1.16321 12C1.16321 6.01515 6.01532 1.16309 12.0001 1.16304ZM12.0001 3.16304C7.11989 3.16309 3.16321 7.11972 3.16321 12C3.16342 16.88 7.12002 20.8358 12.0001 20.8359C16.8801 20.8357 20.8359 16.8799 20.8361 12C20.8361 7.11982 16.8802 3.16325 12.0001 3.16304ZM12.0001 15.5996C12.6627 15.5997 13.2002 16.1372 13.2003 16.7998C13.2003 17.4624 12.6627 17.9998 12.0001 18C11.3374 18 10.7999 17.4625 10.7999 16.7998C10.8001 16.1371 11.3375 15.5996 12.0001 15.5996ZM12.0001 5.99995C14.3583 6.00005 16.2003 7.81439 16.2003 9.99995C16.2003 11.8329 14.9819 12.723 14.1193 13.247C13.6293 13.5446 13.3542 13.6774 13.1144 13.8642C13.0493 13.9149 13.0146 13.9497 12.9972 13.9697C12.9712 14.4988 12.5356 14.9198 12.0001 14.9199C11.4479 14.9198 11.0001 14.4721 11.0001 13.9199C11.0002 13.117 11.4853 12.5985 11.8849 12.2871C12.245 12.0065 12.7712 11.7254 13.0812 11.5371C13.8183 11.0892 14.2003 10.7189 14.2003 9.99995C14.2003 8.98568 13.3217 8.00005 12.0001 7.99995C10.6785 8.00001 9.79997 8.98566 9.79993 9.99995C9.79993 10.5522 9.35221 11 8.79993 11C8.24769 10.9999 7.79993 10.5522 7.79993 9.99995C7.79997 7.81437 9.64188 6.00001 12.0001 5.99995Z" fill="#2E384E"/>
</svg>
