<svg width="19" height="19" viewBox="0 0 19 19" fill="none" xmlns="http://www.w3.org/2000/svg">
<path d="M15.0417 8.70837H3.95833C3.08388 8.70837 2.375 9.41726 2.375 10.2917V15.8334C2.375 16.7078 3.08388 17.4167 3.95833 17.4167H15.0417C15.9161 17.4167 16.625 16.7078 16.625 15.8334V10.2917C16.625 9.41726 15.9161 8.70837 15.0417 8.70837Z" stroke="white" stroke-width="1.68153" stroke-linecap="round" stroke-linejoin="round"/>
<path d="M5.5415 8.70837V5.54171C5.5415 4.49189 5.95854 3.48507 6.70087 2.74274C7.4432 2.00041 8.45002 1.58337 9.49984 1.58337C10.5497 1.58337 11.5565 2.00041 12.2988 2.74274C13.0411 3.48507 13.4582 4.49189 13.4582 5.54171V8.70837" stroke="white" stroke-width="1.68153" stroke-linecap="round" stroke-linejoin="round"/>
</svg>
