<svg width="24" height="24" viewBox="0 0 24 24" fill="none" xmlns="http://www.w3.org/2000/svg">
<path d="M13 4V6C13 6.26522 12.8946 6.51957 12.7071 6.70711C12.5196 6.89464 12.2652 7 12 7H6C5.73478 7 5.48043 6.89464 5.29289 6.70711C5.10536 6.51957 5 6.26522 5 6V4C5 3.73478 5.10536 3.48043 5.29289 3.29289C5.48043 3.10536 5.73478 3 6 3H12C12.2652 3 12.5196 3.10536 12.7071 3.29289C12.8946 3.48043 13 3.73478 13 4ZM3 17V20C3 20.2652 3.10536 20.5196 3.29289 20.7071C3.48043 20.8946 3.73478 21 4 21H20C20.2652 21 20.5196 20.8946 20.7071 20.7071C20.8946 20.5196 21 20.2652 21 20V17L19.23 11.68C19.1629 11.4814 19.0351 11.3089 18.8646 11.1868C18.6942 11.0648 18.4896 10.9995 18.28 11H5.72C5.50193 10.9886 5.28614 11.0489 5.10557 11.1717C4.925 11.2945 4.78958 11.473 4.72 11.68L3 17ZM9 11V7V11ZM3 17V20C3 20.2652 3.10536 20.5196 3.29289 20.7071C3.48043 20.8946 3.73478 21 4 21H20C20.2652 21 20.5196 20.8946 20.7071 20.7071C20.8946 20.5196 21 20.2652 21 20V17H3Z" stroke="#2E384E" stroke-width="2" stroke-linecap="round" stroke-linejoin="round"/>
</svg>
