<svg width="24" height="24" viewBox="0 0 24 24" fill="none" xmlns="http://www.w3.org/2000/svg">
<g clip-path="url(#clip0_7182_8953)">
<path d="M12.8571 15.4286L7.71423 16.3543L8.57138 11.1429L18.3942 1.35429C18.5536 1.19361 18.7432 1.06608 18.9521 0.979046C19.161 0.892014 19.3851 0.847206 19.6114 0.847206C19.8377 0.847206 20.0617 0.892014 20.2707 0.979046C20.4796 1.06608 20.6692 1.19361 20.8285 1.35429L22.6457 3.17143C22.8063 3.3308 22.9339 3.5204 23.0209 3.7293C23.1079 3.9382 23.1527 4.16227 23.1527 4.38857C23.1527 4.61488 23.1079 4.83895 23.0209 5.04785C22.9339 5.25675 22.8063 5.44635 22.6457 5.60572L12.8571 15.4286Z" stroke="#2E384E" stroke-width="1.71429" stroke-linecap="round" stroke-linejoin="round"/>
<path d="M20.5715 16.2857V21.4286C20.5715 21.8832 20.3909 22.3193 20.0694 22.6408C19.7479 22.9622 19.3118 23.1429 18.8572 23.1429H2.57146C2.11681 23.1429 1.68077 22.9622 1.35928 22.6408C1.03779 22.3193 0.857178 21.8832 0.857178 21.4286V5.14286C0.857178 4.6882 1.03779 4.25217 1.35928 3.93068C1.68077 3.60919 2.11681 3.42857 2.57146 3.42857H7.71432" stroke="#2E384E" stroke-width="1.71429" stroke-linecap="round" stroke-linejoin="round"/>
</g>
<defs>
<clipPath id="clip0_7182_8953">
<rect width="24" height="24" fill="white"/>
</clipPath>
</defs>
</svg>
