<svg width="19" height="19" viewBox="0 0 19 19" fill="none" xmlns="http://www.w3.org/2000/svg">
<path fill-rule="evenodd" clip-rule="evenodd" d="M9.5 0.868896C14.7753 0.868896 18.1307 5.20196 18.1309 9.49976C18.1308 13.7976 14.7754 18.1306 9.5 18.1306C6.98002 18.1306 4.87688 17.1323 3.37988 15.6091C2.57925 14.7944 1.95427 13.8316 1.52832 12.7966C1.35204 12.3674 1.55713 11.8766 1.98633 11.7C2.41561 11.5234 2.90719 11.7278 3.08398 12.157C3.42978 12.9972 3.93613 13.7751 4.58008 14.4304C5.77358 15.6447 7.44892 16.4489 9.5 16.449C13.7284 16.449 16.4492 12.9918 16.4492 9.49976C16.4491 6.00775 13.7283 2.55054 9.5 2.55054C6.34158 2.55059 4.66266 4.7211 3.85352 6.12573H5.7002C6.16442 6.1258 6.54091 6.50234 6.54102 6.96655C6.54099 7.43083 6.16447 7.80731 5.7002 7.80737H1.90039C1.43606 7.80737 1.05959 7.43088 1.05957 6.96655V3.16675C1.05957 2.70241 1.43605 2.32593 1.90039 2.32593C2.36459 2.3261 2.74121 2.70251 2.74121 3.16675V4.72729C3.80689 3.10156 5.87987 0.86894 9.5 0.868896ZM9.5 4.85913C9.96431 4.85913 10.3408 5.23566 10.3408 5.69995V9.15112L12.6279 11.4392C12.956 11.7675 12.9561 12.2994 12.6279 12.6277C12.2996 12.956 11.7668 12.956 11.4385 12.6277L8.90527 10.0945C8.74772 9.93683 8.65918 9.72265 8.65918 9.49976V5.69995C8.65924 5.23568 9.03573 4.85917 9.5 4.85913Z" fill="white"/>
</svg>
