<svg width="19" height="19" viewBox="0 0 19 19" fill="none" xmlns="http://www.w3.org/2000/svg">
<path d="M7.65633 3.27437C7.69995 2.81547 7.91309 2.38932 8.25412 2.07918C8.59514 1.76903 9.03955 1.59717 9.50051 1.59717C9.96148 1.59717 10.4059 1.76903 10.7469 2.07918C11.0879 2.38932 11.3011 2.81547 11.3447 3.27437C11.3709 3.57081 11.4682 3.85658 11.6282 4.10747C11.7883 4.35837 12.0064 4.56701 12.2642 4.71574C12.522 4.86447 12.8118 4.94891 13.1091 4.9619C13.4064 4.9749 13.7025 4.91608 13.9722 4.79041C14.3911 4.60024 14.8658 4.57272 15.3038 4.71321C15.7419 4.85371 16.112 5.15217 16.3421 5.5505C16.5722 5.94883 16.6459 6.41853 16.5488 6.8682C16.4517 7.31786 16.1908 7.71532 15.8168 7.9832C15.5733 8.15408 15.3745 8.3811 15.2373 8.64506C15.1 8.90901 15.0284 9.20214 15.0284 9.49964C15.0284 9.79715 15.1 10.0903 15.2373 10.3542C15.3745 10.6182 15.5733 10.8452 15.8168 11.0161C16.1908 11.284 16.4517 11.6814 16.5488 12.1311C16.6459 12.5808 16.5722 13.0505 16.3421 13.4488C16.112 13.8471 15.7419 14.1456 15.3038 14.2861C14.8658 14.4266 14.3911 14.399 13.9722 14.2089C13.7025 14.0832 13.4064 14.0244 13.1091 14.0374C12.8118 14.0504 12.522 14.1348 12.2642 14.2835C12.0064 14.4323 11.7883 14.6409 11.6282 14.8918C11.4682 15.1427 11.3709 15.4285 11.3447 15.7249C11.3011 16.1838 11.0879 16.61 10.7469 16.9201C10.4059 17.2303 9.96148 17.4021 9.50051 17.4021C9.03955 17.4021 8.59514 17.2303 8.25412 16.9201C7.91309 16.61 7.69995 16.1838 7.65633 15.7249C7.63016 15.4284 7.5329 15.1425 7.3728 14.8915C7.2127 14.6405 6.99447 14.4318 6.7366 14.2831C6.47872 14.1343 6.18879 14.0499 5.89137 14.037C5.59395 14.0241 5.2978 14.083 5.02799 14.2089C4.60911 14.399 4.13446 14.4266 3.69641 14.2861C3.25836 14.1456 2.88826 13.8471 2.65813 13.4488C2.428 13.0505 2.35431 12.5808 2.4514 12.1311C2.5485 11.6814 2.80943 11.284 3.18341 11.0161C3.42694 10.8452 3.62574 10.6182 3.76298 10.3542C3.90022 10.0903 3.97187 9.79715 3.97187 9.49964C3.97187 9.20214 3.90022 8.90901 3.76298 8.64506C3.62574 8.3811 3.42694 8.15408 3.18341 7.9832C2.80995 7.71518 2.54948 7.31788 2.45262 6.86852C2.35576 6.41916 2.42943 5.94984 2.65931 5.55177C2.8892 5.1537 3.25887 4.85531 3.69648 4.7146C4.1341 4.5739 4.6084 4.60092 5.0272 4.79041C5.29697 4.91608 5.59304 4.9749 5.89036 4.9619C6.18767 4.94891 6.47748 4.86447 6.73525 4.71574C6.99302 4.56701 7.21117 4.35837 7.37122 4.10747C7.53127 3.85658 7.62853 3.57081 7.65474 3.27437" stroke="white" stroke-width="1.68153" stroke-linecap="round" stroke-linejoin="round"/>
<path d="M9.5 11.875C10.8117 11.875 11.875 10.8117 11.875 9.5C11.875 8.18832 10.8117 7.125 9.5 7.125C8.18832 7.125 7.125 8.18832 7.125 9.5C7.125 10.8117 8.18832 11.875 9.5 11.875Z" stroke="white" stroke-width="1.68153" stroke-linecap="round" stroke-linejoin="round"/>
</svg>
