<svg width="19" height="19" viewBox="0 0 19 19" fill="none" xmlns="http://www.w3.org/2000/svg">
<path d="M17.4168 13.4583C17.4168 13.8783 17.25 14.281 16.9531 14.5779C16.6561 14.8749 16.2534 15.0417 15.8335 15.0417H5.40566C4.98577 15.0418 4.58311 15.2086 4.28625 15.5056L2.543 17.2488C2.46439 17.3274 2.36424 17.3809 2.25522 17.4026C2.14619 17.4243 2.03319 17.4132 1.93049 17.3706C1.82779 17.3281 1.74001 17.2561 1.67825 17.1637C1.61648 17.0712 1.58351 16.9626 1.5835 16.8514V3.95833C1.5835 3.53841 1.75031 3.13568 2.04724 2.83875C2.34418 2.54181 2.7469 2.375 3.16683 2.375H15.8335C16.2534 2.375 16.6561 2.54181 16.9531 2.83875C17.25 3.13568 17.4168 3.53841 17.4168 3.95833V13.4583Z" stroke="white" stroke-width="1.58333" stroke-linecap="round" stroke-linejoin="round"/>
</svg>
