<svg width="18" height="18" viewBox="0 0 18 18" fill="none" xmlns="http://www.w3.org/2000/svg">
<path d="M9.47206 1.13836C9.15957 0.825775 8.73572 0.650119 8.29372 0.650024H2.31706C1.87503 0.650024 1.45111 0.825619 1.13855 1.13818C0.825985 1.45074 0.650391 1.87466 0.650391 2.31669V8.29336C0.650485 8.73535 0.826142 9.1592 1.13872 9.47169L8.39206 16.725C8.77082 17.1014 9.2831 17.3126 9.81706 17.3126C10.351 17.3126 10.8633 17.1014 11.2421 16.725L16.7254 11.2417C17.1018 10.8629 17.313 10.3507 17.313 9.81669C17.313 9.28273 17.1018 8.77045 16.7254 8.39169L9.47206 1.13836Z" stroke="#8794AA" stroke-width="1.3" stroke-linecap="round" stroke-linejoin="round"/>
</svg>
