<svg width="20" height="20" viewBox="0 0 20 20" fill="none" xmlns="http://www.w3.org/2000/svg">
<path d="M12.3747 3.29171V6.45837H11.1247V3.29171C11.1247 3.06671 10.9247 2.95837 10.7913 2.95837C10.7497 2.95837 10.708 2.96671 10.6663 2.98337L4.05801 5.47504C3.61634 5.64171 3.33301 6.05837 3.33301 6.53337V7.09171C2.57467 7.65837 2.08301 8.56671 2.08301 9.59171V6.53337C2.08301 5.54171 2.69134 4.65837 3.61634 4.30837L10.233 1.80837C10.4163 1.74171 10.608 1.70837 10.7913 1.70837C11.6247 1.70837 12.3747 2.38337 12.3747 3.29171Z" fill="#8794AA"/>
<path d="M17.9169 12.0833V12.9166C17.9169 13.1416 17.7419 13.325 17.5086 13.3333H16.2919C15.8502 13.3333 15.4502 13.0083 15.4169 12.575C15.3919 12.3166 15.4919 12.075 15.6586 11.9083C15.8086 11.75 16.0169 11.6666 16.2419 11.6666H17.5002C17.7419 11.675 17.9169 11.8583 17.9169 12.0833Z" fill="#8794AA"/>
<path d="M16.233 10.7917H17.083C17.5413 10.7917 17.9163 10.4167 17.9163 9.95837V9.59171C17.9163 7.86671 16.508 6.45837 14.783 6.45837H5.21634C4.50801 6.45837 3.85801 6.69171 3.33301 7.09171C2.57467 7.65837 2.08301 8.56671 2.08301 9.59171V15.2C2.08301 16.925 3.49134 18.3334 5.21634 18.3334H14.783C16.508 18.3334 17.9163 16.925 17.9163 15.2V15.0417C17.9163 14.5834 17.5413 14.2084 17.083 14.2084H16.358C15.558 14.2084 14.7913 13.7167 14.583 12.9417C14.408 12.3084 14.6163 11.7 15.033 11.2917C15.3413 10.975 15.7663 10.7917 16.233 10.7917ZM11.6663 10.625H5.83301C5.49134 10.625 5.20801 10.3417 5.20801 10C5.20801 9.65837 5.49134 9.37504 5.83301 9.37504H11.6663C12.008 9.37504 12.2913 9.65837 12.2913 10C12.2913 10.3417 12.008 10.625 11.6663 10.625Z" fill="#8794AA"/>
</svg>
