<svg width="27" height="27" viewBox="0 0 27 27" fill="none" xmlns="http://www.w3.org/2000/svg">
<path d="M11.1725 5.5863C10.6173 5.58634 10.082 5.79304 9.67089 6.16616L2.60089 12.5792C2.4855 12.6839 2.3933 12.8116 2.33019 12.9541C2.26709 13.0966 2.2345 13.2507 2.2345 13.4065C2.2345 13.5624 2.26709 13.7165 2.33019 13.859C2.3933 14.0014 2.4855 14.1291 2.60089 14.2339L9.67089 20.648C10.082 21.0212 10.6173 21.2279 11.1725 21.2279H22.3451C22.9377 21.2279 23.506 20.9925 23.9251 20.5734C24.3441 20.1544 24.5796 19.586 24.5796 18.9934V7.82082C24.5796 7.22819 24.3441 6.65983 23.9251 6.24078C23.506 5.82172 22.9377 5.5863 22.3451 5.5863H11.1725Z" stroke="#2E384E" stroke-width="2.23451" stroke-linecap="round" stroke-linejoin="round"/>
<path d="M13.4071 10.0554L20.1106 16.7589" stroke="#2E384E" stroke-width="2.23451" stroke-linecap="round" stroke-linejoin="round"/>
<path d="M20.1106 10.0554L13.4071 16.7589" stroke="#2E384E" stroke-width="2.23451" stroke-linecap="round" stroke-linejoin="round"/>
</svg>
