<svg width="20" height="20" viewBox="0 0 20 20" fill="none" xmlns="http://www.w3.org/2000/svg">
<path d="M12.917 4.16663C14.0874 4.16663 14.6726 4.16663 15.0929 4.44751C15.2749 4.56911 15.4312 4.72536 15.5528 4.90734C15.8337 5.32771 15.8337 5.91291 15.8337 7.08329V15C15.8337 16.5713 15.8337 17.357 15.3455 17.8451C14.8573 18.3333 14.0717 18.3333 12.5003 18.3333H7.50033C5.92898 18.3333 5.1433 18.3333 4.65515 17.8451C4.16699 17.357 4.16699 16.5713 4.16699 15V7.08329C4.16699 5.91291 4.16699 5.32771 4.44788 4.90734C4.56947 4.72536 4.72572 4.56911 4.90771 4.44751C5.32808 4.16663 5.91327 4.16663 7.08366 4.16663" stroke="#8794AA" stroke-width="1.3"/>
<path d="M7.5 4.16667C7.5 3.24619 8.24619 2.5 9.16667 2.5H10.8333C11.7538 2.5 12.5 3.24619 12.5 4.16667C12.5 5.08714 11.7538 5.83333 10.8333 5.83333H9.16667C8.24619 5.83333 7.5 5.08714 7.5 4.16667Z" stroke="#8794AA" stroke-width="1.3"/>
<path d="M7.5 10L12.5 10" stroke="#8794AA" stroke-width="1.3" stroke-linecap="round"/>
<path d="M7.5 13.3334L10.8333 13.3334" stroke="#8794AA" stroke-width="1.3" stroke-linecap="round"/>
</svg>
